<svg width="32" height="32" viewBox="0 0 32 32" fill="none" xmlns="http://www.w3.org/2000/svg">
  <!-- Background circle with antique feel -->
  <circle cx="16" cy="16" r="15" fill="#78350f" stroke="#451a03" stroke-width="2"/>
  
  <!-- Open book icon -->
  <path d="M8 10 L16 6 L24 10 L24 22 L16 26 L8 22 Z" fill="#fbbf24" stroke="#d97706" stroke-width="1"/>
  
  <!-- Book pages -->
  <path d="M10 12 L14 10 L14 20 L10 22 Z" fill="#fffbeb"/>
  <path d="M18 10 L22 12 L22 22 L18 20 Z" fill="#fffbeb"/>
  
  <!-- Central spine -->
  <line x1="16" y1="6" x2="16" y2="26" stroke="#b45309" stroke-width="2"/>
  
  <!-- Text lines on pages -->
  <line x1="11" y1="13" x2="13" y2="13" stroke="#78350f" stroke-width="0.5"/>
  <line x1="11" y1="15" x2="13" y2="15" stroke="#78350f" stroke-width="0.5"/>
  <line x1="11" y1="17" x2="13" y2="17" stroke="#78350f" stroke-width="0.5"/>
  
  <line x1="19" y1="13" x2="21" y2="13" stroke="#78350f" stroke-width="0.5"/>
  <line x1="19" y1="15" x2="21" y2="15" stroke="#78350f" stroke-width="0.5"/>
  <line x1="19" y1="17" x2="21" y2="17" stroke="#78350f" stroke-width="0.5"/>
</svg>
